# xmcd
#
# Track frame offsets:
#	150
#	11404
#	23291
#	36018
#	48369
#	60693
#	71461
#	82827
#	95774
#	106578
#	119488
#	130595
#	141792
#	153158
#	165084
#	176023
#
# Disc length: 2481 seconds
#
# Revision: 1
# Processed by: cddbd v1.5.2PL0 Copyright (c) Steve Scherf et al.
# Submitted via: audiograbber 1.83.01
#
DISCID=b409af10
DTITLE=Jean Shepard - Beautiful Lies - The Early Years - CD1
DYEAR=2009
DGENRE=Country
TTITLE0=Crying Steel Guitar
TTITLE1=I'd Rather Die Young
TTITLE2=My Wedding Ring
TTITLE3=Why Did You Wait
TTITLE4=The Mysteries Of Life
TTITLE5=Two Whoops And A Holler
TTITLE6=A Satisfied Mind
TTITLE7=Beautiful Lies
TTITLE8=You're Calling Me Sweetheart Again
TTITLE9=Girls In Disgrace
TTITLE10=Over And Over
TTITLE11=Tell Me What I Want To Hear
TTITLE12=Shadows On The Wall
TTITLE13=I'll Thank You All My Life
TTITLE14=I Learned It All From You
TTITLE15=Hello Old Broken Heart
EXTD=
EXTT0=
EXTT1=
EXTT2=
EXTT3=
EXTT4=
EXTT5=
EXTT6=
EXTT7=
EXTT8=
EXTT9=
EXTT10=
EXTT11=
EXTT12=
EXTT13=
EXTT14=
EXTT15=
PLAYORDER=
